<?xml version="1.0" standalone="no"?>
<!DOCTYPE svg PUBLIC "-//W3C//DTD SVG 20010904//EN"
 "http://www.w3.org/TR/2001/REC-SVG-20010904/DTD/svg10.dtd">
<svg version="1.0" xmlns="http://www.w3.org/2000/svg"
 width="512.000000pt" height="512.000000pt" viewBox="0 0 512.000000 512.000000"
 preserveAspectRatio="xMidYMid meet">

<g transform="translate(0.000000,512.000000) scale(0.100000,-0.100000)"
fill="#000000" stroke="none">
<path d="M105 5015 c-25 -24 -25 -26 -25 -215 0 -189 0 -191 25 -215 l24 -25
536 0 535 0 0 -55 0 -55 -137 -68 c-76 -38 -165 -79 -198 -92 -284 -113 -487
-367 -535 -670 -5 -36 -10 -134 -10 -218 0 -149 1 -154 25 -177 23 -24 29 -25
160 -25 l135 0 0 -335 0 -336 25 -24 24 -25 1871 0 1871 0 24 25 25 24 0 336
0 335 135 0 c131 0 137 1 160 25 24 23 25 28 25 177 0 84 -5 182 -10 218 -49
306 -253 560 -545 675 -38 15 -127 56 -197 91 l-128 64 0 55 0 55 535 0 536 0
24 25 c25 24 25 26 25 215 0 189 0 191 -25 215 l-24 25 -2431 0 -2431 0 -24
-25z m1735 -510 l0 -55 -120 -60 -120 -60 -120 60 -120 60 0 55 0 55 240 0
240 0 0 -55z m640 0 l0 -55 -120 -60 -120 -60 -120 60 -120 60 0 55 0 55 240
0 240 0 0 -55z m640 0 l0 -55 -120 -60 -120 -60 -120 60 -120 60 0 55 0 55
240 0 240 0 0 -55z m640 0 l0 -55 -120 -60 -120 -60 -120 60 -120 60 0 55 0
55 240 0 240 0 0 -55z m-2367 -251 c61 -31 114 -58 115 -59 2 -2 1 -18 -3 -36
-10 -45 -99 -131 -151 -147 -94 -28 -168 -8 -240 63 -32 31 -54 64 -59 84 -4
18 -5 34 -3 36 3 3 221 114 226 114 1 1 53 -24 115 -55z m640 0 c61 -31 114
-58 115 -59 13 -11 -16 -72 -53 -112 l-43 -48 -79 76 c-44 42 -101 89 -127
104 -25 15 -46 29 -46 31 0 3 109 62 118 64 1 0 53 -25 115 -56z m640 0 c61
-31 114 -58 115 -59 13 -11 -16 -72 -53 -112 l-43 -48 -79 76 c-44 42 -101 89
-127 104 -25 15 -46 29 -46 31 0 3 109 62 118 64 1 0 53 -25 115 -56z m640 0
c61 -31 114 -58 115 -59 13 -11 -16 -72 -53 -112 l-43 -48 -79 76 c-44 42
-101 89 -127 104 -25 15 -46 29 -46 31 0 3 109 62 118 64 1 0 53 -25 115 -56z
m642 -1 c63 -32 115 -63 115 -71 0 -23 -37 -86 -69 -116 l-30 -29 -79 75 c-44
42 -100 88 -126 103 -25 15 -46 29 -46 31 0 3 108 62 117 64 2 0 55 -26 118
-57z m-286 -166 c30 -18 84 -61 120 -97 143 -140 211 -313 211 -536 l0 -94
-80 0 -80 0 0 120 0 120 -80 0 -80 0 0 -480 0 -480 -240 0 -240 0 0 280 0 280
135 0 c133 0 137 1 162 26 l25 25 -5 197 c-5 210 -16 271 -72 398 l-25 57 40
34 c48 41 92 103 111 156 15 43 16 43 98 -6z m-2750 -22 c32 -74 109 -150 190
-189 61 -29 74 -31 171 -31 97 0 110 2 171 31 81 39 158 115 190 189 13 30 28
55 33 55 27 0 132 -74 201 -144 134 -134 190 -272 202 -495 l6 -121 -81 0 -82
0 0 120 0 120 -80 0 -80 0 0 -480 0 -480 -480 0 -480 0 0 480 0 480 -80 0 -80
0 0 -120 0 -120 -82 0 -81 0 7 124 c11 221 69 361 205 497 68 68 168 139 196
139 6 0 21 -25 34 -55z m3390 18 c94 -56 200 -172 250 -274 54 -112 71 -180
78 -326 l6 -123 -81 0 -82 0 0 120 0 120 -80 0 -80 0 0 -480 0 -480 -240 0
-240 0 0 280 0 280 138 0 c195 0 185 -14 179 252 -5 218 -18 291 -72 397 l-24
48 63 64 c36 37 70 84 82 111 10 27 24 48 29 48 6 0 39 -17 74 -37z"/>
<path d="M105 2295 c-25 -24 -25 -26 -25 -215 0 -189 0 -191 25 -215 l24 -25
616 0 615 0 0 -98 0 -99 -213 -141 c-190 -127 -217 -142 -255 -142 -32 0 -49
-6 -67 -25 l-25 -24 0 -591 0 -591 25 -24 24 -25 229 0 c204 0 232 2 251 17
15 13 35 68 71 193 28 96 51 179 53 184 1 4 38 -74 81 -175 42 -101 87 -192
98 -201 18 -16 44 -18 208 -18 240 0 233 -4 240 141 l5 102 45 -107 c24 -60
54 -114 65 -122 15 -11 63 -14 206 -14 239 0 232 -4 239 141 l5 102 45 -107
c24 -60 54 -114 65 -122 15 -11 63 -14 206 -14 239 0 232 -4 239 141 l5 102
45 -107 c24 -60 54 -114 65 -122 15 -11 63 -14 206 -14 239 0 232 -4 239 141
l5 102 45 -107 c24 -60 54 -114 65 -122 15 -11 63 -14 208 -14 186 0 188 0
212 25 l25 24 0 591 0 591 -25 24 c-18 19 -35 25 -67 25 -38 0 -65 15 -255
142 l-213 141 0 99 0 98 615 0 616 0 24 25 c25 24 25 26 25 215 0 189 0 191
-25 215 l-24 25 -2431 0 -2431 0 -24 -25z m1815 -553 l0 -99 -100 -67 -100
-66 -100 66 -100 67 0 99 0 98 200 0 200 0 0 -98z m560 0 l0 -99 -100 -67
-100 -66 -100 66 -100 67 0 99 0 98 200 0 200 0 0 -98z m560 0 l0 -99 -100
-67 -100 -66 -100 66 -100 67 0 99 0 98 200 0 200 0 0 -98z m560 0 l0 -99
-100 -67 -100 -66 -100 66 -100 67 0 99 0 98 200 0 200 0 0 -98z m-2050 -312
l105 -70 -215 0 -215 0 105 70 c58 38 107 70 110 70 3 0 52 -32 110 -70z m560
0 l105 -70 -135 0 c-129 0 -137 1 -174 26 -21 14 -34 29 -29 34 14 13 117 80
123 80 3 0 52 -32 110 -70z m560 0 l105 -70 -135 0 c-129 0 -137 1 -174 26
-21 14 -34 29 -29 34 14 13 117 80 123 80 3 0 52 -32 110 -70z m560 0 l105
-70 -135 0 c-129 0 -137 1 -174 26 -21 14 -34 29 -29 34 14 13 117 80 123 80
3 0 52 -32 110 -70z m560 0 l105 -70 -135 0 c-129 0 -137 1 -174 26 -21 14
-34 29 -29 34 14 13 117 80 123 80 3 0 52 -32 110 -70z m-1870 -710 l0 -481
-92 3 -92 3 -111 257 c-60 141 -119 266 -129 277 -27 29 -86 28 -113 -1 -14
-15 -46 -111 -94 -280 l-73 -258 -128 0 -128 0 0 480 0 480 480 0 480 0 0
-480z m1680 0 l0 -480 -93 0 -94 0 -106 249 -107 250 0 230 0 231 200 0 200 0
0 -480z m560 0 l0 -480 -92 0 -93 0 -108 253 -107 252 0 228 0 227 200 0 200
0 0 -480z"/>
</g>
</svg>
