<?xml version="1.0" standalone="no"?>
<!DOCTYPE svg PUBLIC "-//W3C//DTD SVG 20010904//EN"
 "http://www.w3.org/TR/2001/REC-SVG-20010904/DTD/svg10.dtd">
<svg version="1.0" xmlns="http://www.w3.org/2000/svg"
 width="226.000000pt" height="50.000000pt" viewBox="0 0 226.000000 50.000000"
 preserveAspectRatio="xMidYMid meet">
<metadata>
Created by potrace 1.16, written by Peter Selinger 2001-2019
</metadata>
<g transform="translate(0.000000,50.000000) scale(0.176563,-0.039062)"
fill="#000000" stroke="none">
<path d="M40 1160 l0 -80 30 0 c28 0 63 24 71 49 3 8 53 11 174 9 119 -2 160
-6 138 -12 -30 -8 -33 -12 -33 -47 l0 -38 -77 -16 c-105 -22 -103 -21 -103
-49 0 -22 -8 -27 -76 -47 -55 -16 -78 -28 -84 -43 -8 -20 -41 -602 -40 -713
l0 -53 50 0 50 0 0 -40 0 -40 300 0 300 0 0 40 0 40 50 0 50 0 0 53 c0 28 -7
163 -15 299 l-14 247 34 83 c36 90 43 94 108 69 23 -9 27 -16 28 -53 0 -24 8
-181 17 -350 l17 -308 -58 0 c-58 0 -59 0 -53 28 2 15 8 123 11 240 7 208 7
212 -13 212 -26 0 -29 -29 -38 -307 l-7 -213 103 0 103 0 -6 153 c-3 83 -3
146 0 140 3 -8 24 -13 54 -13 l49 0 0 220 0 220 40 0 c34 0 40 3 40 20 0 27
-57 140 -73 145 -7 2 -47 11 -89 20 -62 14 -78 21 -78 35 0 11 10 20 30 24 19
3 34 15 42 31 8 18 19 25 40 25 15 0 28 -4 28 -10 0 -21 41 -50 70 -50 l30 0
0 80 0 80 -30 0 c-29 0 -70 -29 -70 -50 0 -5 -13 -10 -30 -10 -16 0 -30 5 -30
10 0 27 -41 50 -90 50 -43 0 -50 -3 -50 -20 0 -15 7 -20 28 -20 15 0 34 -5 42
-10 10 -7 -28 -10 -117 -10 -82 0 -133 4 -133 10 0 27 -41 50 -90 50 -43 0
-50 -3 -50 -20 0 -15 7 -20 28 -20 15 0 34 -5 42 -10 10 -7 -11 -10 -67 -10
-49 0 -83 4 -83 10 0 27 -41 50 -90 50 -43 0 -50 -3 -50 -20 0 -15 7 -20 28
-20 15 0 34 -5 42 -10 10 -6 -42 -10 -157 -10 -109 0 -173 4 -173 10 0 21 -41
50 -70 50 l-30 0 0 -80z m650 -30 c-8 -5 -23 -10 -33 -10 -16 0 -18 -8 -15
-62 3 -60 4 -63 31 -66 30 -4 33 -10 14 -36 -17 -23 -47 -11 -47 20 0 28 2 27
-102 49 -62 14 -78 21 -78 35 0 11 10 20 30 24 19 3 34 15 42 31 11 24 15 25
92 25 56 0 76 -3 66 -10z m320 0 c-8 -5 -23 -10 -32 -10 -14 0 -18 -9 -18 -40
0 -37 -2 -39 -35 -46 -40 -7 -48 -15 -39 -39 6 -14 15 -15 55 -10 31 4 74 1
124 -10 72 -16 77 -19 96 -56 l19 -39 -79 0 c-56 0 -80 4 -84 13 -3 7 -39 23
-81 35 -69 20 -76 25 -76 48 0 28 2 27 -102 49 -62 14 -78 21 -78 35 0 11 10
20 30 24 19 3 34 15 42 31 11 25 12 25 142 25 88 0 126 -3 116 -10z m-495
-147 c61 -13 75 -19 70 -32 -32 -86 -51 -131 -56 -131 -4 0 -17 8 -30 19 l-23
18 42 27 c23 14 42 30 42 34 0 5 -11 19 -24 31 -25 23 -40 16 -41 -19 0 -8
-12 -21 -27 -30 -25 -13 -31 -13 -55 0 -17 10 -28 24 -28 37 0 12 -3 25 -8 29
-7 8 -57 -33 -57 -48 0 -4 19 -20 42 -34 l42 -27 -23 -18 c-13 -11 -26 -19
-30 -19 -6 0 -64 141 -59 145 3 3 126 32 140 34 4 1 42 -6 83 -16z m-219 -145
c16 -39 34 -73 40 -75 6 -2 25 8 42 22 16 14 33 25 36 25 3 0 6 -164 6 -365
l0 -365 -120 0 c-112 0 -120 1 -120 19 0 14 8 21 28 23 l27 3 -2 125 c-2 69
-5 185 -9 258 -6 123 -7 132 -26 132 -22 0 -22 -28 -2 -377 l6 -103 -62 0 -61
0 6 82 c3 46 12 204 20 352 8 148 16 270 17 271 6 5 124 43 134 44 5 1 23 -31
40 -71z m395 51 c35 -12 65 -23 67 -24 1 -1 9 -123 17 -271 8 -148 17 -306 20
-352 l6 -82 -61 0 -62 0 6 107 c19 368 19 373 -2 373 -19 0 -20 -9 -26 -122
-4 -68 -7 -184 -9 -258 l-2 -135 28 -3 c19 -2 27 -9 27 -23 0 -18 -8 -19 -120
-19 l-120 0 0 365 c0 201 3 365 6 365 3 0 20 -11 36 -25 17 -14 36 -24 42 -22
6 2 24 36 40 75 17 40 33 72 36 72 3 0 35 -10 71 -21z"/>
</g>
</svg>
